Coordinates
version=1
nRows=16
nColumns=36
inDegrees=yes

Units are S.I. units (second, meters, Newtons, ...)
If the header above contains a line with 'inDegrees', this indicates whether rotational values are in degrees (yes) or radians (no).

endheader
time	pelvis_tilt	pelvis_list	pelvis_rotation	pelvis_tx	pelvis_ty	pelvis_tz	hip_flexion_r	hip_adduction_r	hip_rotation_r	knee_angle_r	knee_angle_r_beta	ankle_angle_r	subtalar_angle_r	mtp_angle_r	hip_flexion_l	hip_adduction_l	hip_rotation_l	knee_angle_l	knee_angle_l_beta	ankle_angle_l	subtalar_angle_l	mtp_angle_l	lumbar_extension	lumbar_bending	lumbar_rotation	arm_flex_r	arm_add_r	arm_rot_r	elbow_flex_r	pro_sup_r	arm_flex_l	arm_add_l	arm_rot_l	elbow_flex_l	pro_sup_l
      1.95000000	    -19.09721271	     -1.14150799	      6.54059880	      0.00891465	      1.21213043	      0.12640903	     29.87473029	     -1.35907419	     -3.52361384	     18.52252337	      0.32327902	     10.50209676	    -10.62670690	     -7.49999987	     23.75621534	      0.88183898	     -7.61676554	     12.66456775	      0.22103841	     14.11391090	      2.78674267	     -7.49999987	     -6.33996417	     -8.01455428	     -5.40217819	    -41.53449286	    -16.71140178	    -15.04150951	    102.27165292	     97.53903653	    -54.82909763	    -10.18625079	    -41.35567806	     43.68476785	     85.79442663
      1.96666670	    -19.89423519	     -1.18539298	      6.23682017	      0.00934202	      1.20960958	      0.12642163	     31.20025915	     -1.16309273	     -2.84189047	     19.61156644	      0.34228641	     10.66270822	    -11.66845680	     -7.49999987	     24.65612381	      0.78382401	     -7.71241947	     13.09198902	      0.22849831	     14.44044536	      2.49712314	     -7.49999987	     -6.61730782	     -7.80564226	     -5.73620184	    -42.03689976	    -18.04373709	    -12.74430810	    102.59537695	     96.75042531	    -55.30958134	     -9.65543202	    -41.77318366	     43.62629270	     84.98419761
      1.98333330	    -20.63105380	     -1.11759189	      6.03611882	      0.00994174	      1.21165447	      0.12648125	     32.15066291	     -1.12059892	     -2.33105025	     20.16300533	      0.35191083	     10.91612705	    -12.15572186	     -7.49999987	     25.34082027	      0.87788726	     -7.76538957	     13.14242288	      0.22937855	     14.51880362	      2.29530224	     -7.49999987	     -7.10860153	     -7.60242829	     -5.74335154	    -43.15177341	    -18.63035834	    -11.20699359	    102.39167996	     96.02581325	    -55.55398829	     -9.53552890	    -42.35198901	     44.06317223	     84.56632020
      2.00000000	    -21.84066856	     -1.24293490	      6.02150455	      0.00290721	      1.20441077	      0.12289242	     33.35661320	     -0.99532688	     -1.77565853	     20.09571195	      0.35073634	     11.17154890	    -12.52926819	     -7.49999987	     27.04781996	      0.97601901	     -7.51723074	     13.63598790	      0.23799289	     14.74521417	      1.65404195	     -7.49999987	     -7.32428605	     -7.43300320	     -6.94191134	    -41.12389335	    -21.40464124	     -6.20431481	     99.74121705	     93.83217908	    -55.45549890	     -8.12049942	    -45.09085280	     43.87603607	     83.88366286
      2.01666670	    -22.85779924	     -1.37390807	      6.23020861	      0.00314210	      1.19689185	      0.12296699	     34.53439780	     -1.02008548	     -1.50574533	     20.34309245	      0.35505394	     11.72587924	    -12.92796467	     -7.49999987	     28.77413246	      1.12684985	     -7.26055043	     14.48820331	      0.25286685	     15.17960543	      0.99452007	     -7.49999987	     -7.70535615	     -7.46370315	     -7.44116509	    -39.57576678	    -23.10773920	     -2.31220557	     96.70122430	     90.04831073	    -55.22150860	     -6.83987221	    -49.80619970	     45.44151891	     91.66154237
      2.03333330	    -23.91151735	     -1.44943412	      6.32066305	      0.00366105	      1.19418582	      0.12308991	     35.72160510	     -1.15560201	     -1.34451338	     20.46171039	      0.35712422	     12.35176955	    -13.00243020	     -7.49999987	     30.85179428	      1.23524011	     -7.14811961	     15.90672894	      0.27762479	     15.56696399	      0.00390986	     -7.49999987	     -8.24184149	     -7.35293121	     -6.88184407	    -39.32412619	    -22.78912776	     -1.58076875	     94.54445321	     88.45054178	    -54.90705921	     -7.19563412	    -49.70107687	     46.99241632	     90.11069547
      2.05000000	    -25.63107829	     -1.96226282	      6.37948434	      0.00444054	      1.19152062	      0.12304200	     37.59734339	     -0.96618944	     -1.24288120	     20.49065759	      0.35762944	     12.60270673	    -13.47091431	     -7.49999987	     34.08247383	      0.97125455	     -6.46460382	     18.33928846	      0.32008097	     15.75311599	     -2.22771735	     -7.49999987	     -7.66522514	     -6.90737510	     -7.47813233	    -37.19346116	    -23.89709756	      1.91830254	     90.40949800	     87.51908938	    -54.05923580	     -7.51359814	    -48.19775451	     44.62484491	     90.10064231
      2.06666670	    -26.91384869	     -2.44605148	      6.42655467	      0.00517633	      1.18791268	      0.12273387	     39.19902823	     -0.73776241	     -1.07727244	     20.88842830	      0.36457185	     12.92086296	    -14.16393998	     -7.49999987	     37.23191015	      0.67223403	     -5.76101547	     21.65402212	      0.37793398	     15.88922372	     -4.97063521	     -7.49999987	     -7.55791893	     -6.54663094	     -7.35462907	    -35.77555212	    -23.62324543	      3.38968221	     86.65146792	     86.45100456	    -53.29095281	     -8.44811738	    -44.63424107	     44.13650200	     90.29749574
      2.08333330	    -27.92213190	     -3.01904075	      6.61057286	      0.01306432	      1.18329859	      0.12647875	     40.36089764	     -0.32443665	     -0.87637510	     21.41023684	      0.37367913	     13.01632019	    -15.21964511	     -7.49999987	     39.91242056	      0.25209169	     -4.95735013	     24.87712123	      0.43418767	     15.68999686	     -7.48506877	     -7.49999987	     -7.54292462	     -6.19582460	     -6.98447985	    -34.53578818	    -22.10722644	      3.41203232	     82.18200831	     86.65135081	    -51.67444284	     -9.56932144	    -42.56358151	     42.41208054	     91.14478735
      2.10000000	    -29.18759532	     -3.56843026	      7.06616052	      0.01452974	      1.18310676	      0.12554253	     41.82664880	     -0.13279365	     -0.68118160	     21.92771756	      0.38271087	     12.83130764	    -16.60379706	     -7.49999987	     42.65298119	      0.13278928	     -4.24047822	     27.66711766	      0.48288230	     15.44043219	     -9.63885956	     -7.49999987	     -7.22249637	     -6.12720876	     -6.16496014	    -32.76747207	    -19.85020508	      3.19899110	     76.05288421	     84.73325067	    -48.84623998	    -10.87500762	    -41.60324821	     40.88424423	     89.56696608
      2.11666670	    -30.00517388	     -3.98110787	      6.92633390	      0.02311413	      1.18095646	      0.12910762	     42.74112163	      0.42783951	     -0.20767566	     22.63583003	      0.39506976	     12.86351767	    -17.75887559	     -7.49999987	     44.44551131	     -0.23269042	     -3.43510075	     29.97689667	      0.52319555	     15.05506649	    -11.77549597	     -7.49999987	     -7.19056940	     -6.06103595	     -5.09261884	    -29.64063334	    -17.62005627	      3.68117673	     68.07757032	     85.27514334	    -44.72905600	    -12.13324167	    -39.81464894	     37.17370295	     90.48235532
      2.13333330	    -30.81398984	     -4.24383853	      6.81969124	      0.02386516	      1.17754619	      0.12862609	     43.74654525	      0.88599505	      0.28624844	     23.53018969	      0.41067928	     12.76993189	    -19.20894503	     -7.49999987	     45.89869373	     -0.39816099	     -2.89017842	     31.57843736	      0.55114770	     14.73282069	    -13.44649938	     -7.49999987	     -6.91762980	     -5.81182600	     -5.00834789	    -26.14216447	    -15.61629900	      5.94926322	     59.15358275	     87.02288715	    -40.14530716	    -13.69183607	    -33.35689121	     31.12650650	     92.36245879
      2.15000000	    -31.33621578	     -4.53485743	      6.82239364	      0.03818994	      1.17008352	      0.12931230	     44.19366867	      1.43650742	      0.77185332	     24.56088427	      0.42866830	     13.27153265	    -20.60571904	     -7.49999987	     46.78457902	     -0.73523763	     -2.55663349	     33.17227482	      0.57896542	     15.19552804	    -14.22451716	     -7.49999987	     -6.76036835	     -6.03013217	     -3.66296775	    -24.88538722	    -12.85588809	      3.30444527	     52.41187945	     89.55394713	    -34.62266847	    -15.39237940	    -28.93193796	     25.85108468	     93.54015440
      2.16666670	    -31.69832052	     -4.72125013	      6.92373544	      0.03847102	      1.17022251	      0.12860516	     44.39393679	      1.72829648	      1.05792227	     25.13917000	      0.43876129	     13.44479222	    -21.89671120	     -7.49999987	     47.50610180	     -0.89896168	     -2.38423016	     34.55849161	      0.60315946	     15.37924194	    -14.69028430	     -7.49999987	     -6.45117646	     -6.32504346	     -3.31482696	    -20.33957327	    -11.04956756	      4.42672915	     42.72246001	     90.40214199	    -28.50280621	    -15.63461473	    -25.34621020	     22.06858367	     94.26130238
      2.18333330	    -30.95321579	     -4.78886880	      7.08583672	      0.04500505	      1.17236045	      0.12510709	     43.13404152	      2.01425280	      1.74443917	     25.23620479	      0.44045486	     13.42915265	    -23.29417846	     -7.49999987	     46.67014889	     -0.98930214	     -2.03870006	     35.33821124	      0.61676814	     15.57496224	    -14.69763675	     -7.49999987	     -6.91862825	     -6.24530354	     -2.73325476	    -15.02475544	     -8.89954338	      4.07490091	     32.64673855	     90.45646061	    -21.40164235	    -14.94928663	    -23.68485495	     19.65043515	     94.58467028
      2.20000000	    -30.35938354	     -4.78591200	      7.76357336	      0.05031567	      1.16956680	      0.12122785	     42.53283338	      1.92325935	      2.19626832	     26.48149772	      0.46218933	     14.11297858	    -25.07473995	     -7.49999987	     46.35418256	     -0.59402300	     -1.53399620	     36.29198091	      0.63341456	     16.66059941	    -14.03074069	     -7.49999987	     -7.10422906	     -5.94900672	     -3.20642563	     -7.49581735	     -6.90820593	      6.07486002	     21.93610538	     91.26795935	    -13.35259455	    -14.24668998	    -18.45846015	     16.70811003	     95.52097225
